:version 1.10
:name ASF
:units
  mass 1
  length 1
  angle deg
:documentation
  ASF file generated by Kaydara
:root
  axis xyz
  order  tx ty tz rx ry rz
  position 0 0 0
  orientation 0 0 0
:bonedata
  begin
    id 1
    name RightUpLegDummy
    direction -0.718183 -0.695806 0.00816078
    length 4.904
    axis 0 0 0 xyz
  end
  begin
    id 2
    name RightUpLeg
    direction 3.53373e-006 -0.995788 0.0916898
    length 17.4976
    axis -3.49089 -0.000906625 0.000286804 xyz
    dof rx ry rz
  end
  begin
    id 3
    name RightLeg
    direction 0.00371092 -0.995096 -0.0988419
    length 16.5821
    axis 3.68512 0.0193738 -0.131023 xyz
    dof rx ry rz
  end
  begin
    id 4
    name RightFoot
    direction 0.00079151 -0.46099 0.887405
    length 3.77069
    axis 4.81691e-005 -0.120479 -0.188788 xyz
    dof rx ry rz
  end
  begin
    id 5
    name RightToes
    direction 0 0 0
    length 0
    axis 0 0 0 xyz
    dof rx ry rz
  end
  begin
    id 6
    name SpineDummy
    direction 8.3039e-015 1 4.57515e-016
    length 4.6813
    axis 0 0 0 xyz
  end
  begin
    id 7
    name Spine
    direction -3.15643e-008 0.999988 0.00495137
    length 10.1015
    axis -0.001389 0.000121418 2.40972e-006 xyz
    dof rx ry rz
  end
  begin
    id 8
    name Spine1
    direction 0 0 0
    length 0
    axis -0.001389 0.000121451 1.30017e-006 xyz
    dof rx ry rz
  end
  begin
    id 9
    name HEadDummy
    direction -1.99912e-008 0.999999 0.00127422
    length 3.43865
    axis -0.001389 0.000121451 1.30017e-006 xyz
  end
  begin
    id 10
    name HEad
    direction 0 0 0
    length 0
    axis 0 0 0 xyz
    dof rx ry rz
  end
  begin
    id 11
    name LeftShoulder1Dummy
    direction 0.998891 -0.0402509 -0.0244456
    length 3.5433
    axis -0.001389 0.000121451 1.30017e-006 xyz
  end
  begin
    id 12
    name LeftShoulder1
    direction 0.99951 -0.000327763 0.0313091
    length 4.05031
    axis -0.001389 0.000121451 1.30017e-006 xyz
    dof rx ry rz
  end
  begin
    id 13
    name LeftArm
    direction 0.998561 -0.00100056 -0.0536182
    length 10.3537
    axis -23.1894 0.134784 0.967509 xyz
    dof rx ry rz
  end
  begin
    id 14
    name LeftForeArm
    direction 0.998903 0.00866432 0.046012
    length 8.70632
    axis -9.91835 -0.06569 -0.177794 xyz
    dof rx ry rz
  end
  begin
    id 15
    name LeftHand
    direction 0 0 0
    length 0
    axis 0 0 0 xyz
    dof rx ry rz
  end
  begin
    id 16
    name RightShoulderDummy
    direction -0.998891 -0.0402509 -0.0244414
    length 3.5433
    axis -0.001389 0.000121451 1.30017e-006 xyz
  end
  begin
    id 17
    name RightShoulder
    direction -0.99951 -0.000327807 0.0313133
    length 4.05031
    axis 0.215806 0.000203643 -0.0068026 xyz
    dof rx ry rz
  end
  begin
    id 18
    name RightArm
    direction -0.998573 -0.000999564 -0.053403
    length 10.3947
    axis -23.2009 -0.134239 -0.964101 xyz
    dof rx ry rz
  end
  begin
    id 19
    name RightForeArm
    direction -0.998898 0.00868028 0.0461306
    length 8.68355
    axis -9.92322 0.0658061 0.178868 xyz
    dof rx ry rz
  end
  begin
    id 20
    name RightHand
    direction 0 0 0
    length 0
    axis 0 0 0 xyz
    dof rx ry rz
  end
  begin
    id 21
    name LeftUpLegDummy
    direction 0.718183 -0.695806 0.00816078
    length 4.904
    axis 0 0 0 xyz
  end
  begin
    id 22
    name LeftUpLeg
    direction -6.81752e-006 -0.995793 0.0916337
    length 17.4976
    axis -3.48766 0.00143442 -0.000524262 xyz
    dof rx ry rz
  end
  begin
    id 23
    name LeftLeg
    direction -0.00601358 -0.995091 -0.0987824
    length 16.5821
    axis 3.68178 -0.00654042 -0.000285133 xyz
    dof rx ry rz
  end
  begin
    id 24
    name LeftFoot
    direction -0.00417578 -0.460984 0.887399
    length 3.77069
    axis 1.87233e-006 4.66016e-005 -8.6538e-006 xyz
    dof rx ry rz
  end
  begin
    id 25
    name LeftToes
    direction 0 0 0
    length 0
    axis 0 0 0 xyz
    dof rx ry rz
  end
:hierarchy
  begin
    root RightUpLegDummy SpineDummy LeftUpLegDummy
    RightUpLegDummy RightUpLeg
    RightUpLeg RightLeg
    RightLeg RightFoot
    RightFoot RightToes
    SpineDummy Spine
    Spine Spine1
    Spine1 HEadDummy LeftShoulder1Dummy RightShoulderDummy
    HEadDummy HEad
    LeftShoulder1Dummy LeftShoulder1
    LeftShoulder1 LeftArm
    LeftArm LeftForeArm
    LeftForeArm LeftHand
    RightShoulderDummy RightShoulder
    RightShoulder RightArm
    RightArm RightForeArm
    RightForeArm RightHand
    LeftUpLegDummy LeftUpLeg
    LeftUpLeg LeftLeg
    LeftLeg LeftFoot
    LeftFoot LeftToes
  end

:SAMPLES-PER-SECOND 30
:FULLY-SPECIFIED
:DEGREES
149
root  -52.4897 41.2768 1.41286 171.432 -83.3235 -175.505
RightUpLeg  -2.63225 -6.82999 -5.03185
RightLeg  6.36066 3.24405 2.27668
RightFoot  0.794954 -0.167582 1.62617
RightToes  0.000481922 0.542163 -0.142578
Spine  -0.261476 0.0627791 -0.305693
Spine1  7.65746 -0.988428 4.16618
HEad  -6.9186 5.48789 -1.96187
LeftShoulder1  7.73531 -12.2767 -42.5898
LeftArm  2.8478 6.82806 -20.3804
LeftForeArm  34.4068 -21.7404 -3.51021
LeftHand  -0.25398 0.0180481 5.50724
RightShoulder  4.4193 7.97758 32.5533
RightArm  -14.8829 -10.1242 23.6914
RightForeArm  6.90344 12.3506 4.9522
RightHand  -1.93193 7.15281 -18.1572
LeftUpLeg  3.99305 3.90314 -2.20057
LeftLeg  2.93718 14.0088 -4.87971
LeftFoot  -3.36047 -0.527321 7.83702
LeftToes  1.06245e-005 4.65869e-005 -8.65513e-006
150
root  -52.7622 41.3002 1.37 170.069 -83.1151 -173.667
RightUpLeg  -2.44525 -6.78129 -4.81089
RightLeg  5.79769 3.34541 2.44958
RightFoot  0.868102 -0.157185 1.5247
RightToes  0.000481922 0.542163 -0.142578
Spine  -0.527845 0.237975 0.676362
Spine1  6.86557 -0.647904 3.53632
HEad  -6.06912 5.37154 -1.6252
LeftShoulder1  7.02717 -11.6845 -40.0179
LeftArm  -2.12156 7.49692 -18.1608
LeftForeArm  35.9607 -14.9606 -5.21333
LeftHand  -0.25398 0.0180481 5.50724
RightShoulder  3.98989 7.6478 29.8025
RightArm  -14.6433 -8.18302 19.2251
RightForeArm  6.17148 11.9533 5.05279
RightHand  -1.85773 6.7932 -17.973
LeftUpLeg  4.03413 3.99293 -1.93424
LeftLeg  2.7829 14.0153 -4.86307
LeftFoot  -3.67446 -0.487499 7.59549
LeftToes  1.06245e-005 4.65869e-005 -8.65513e-006
151
root  -53.0112 41.3229 1.31242 168.78 -83.1202 -172.186
RightUpLeg  -2.14585 -6.70833 -4.5861
RightLeg  5.64422 3.20046 2.47597
RightFoot  0.800651 -0.115362 1.13487
RightToes  0.000481922 0.542163 -0.142578
Spine  -0.414658 0.480053 1.4937
Spine1  6.2372 -0.304901 3.18591
HEad  -5.86026 5.12224 -1.58677
LeftShoulder1  6.40674 -11.1306 -37.641
LeftArm  -6.89485 8.20662 -14.9468
LeftForeArm  36.153 -10.3547 -5.82804
LeftHand  -0.25398 0.0180481 5.50724
RightShoulder  3.33366 6.82103 26.2024
RightArm  -15.4664 -6.47334 15.2854
RightForeArm  5.42182 11.3878 4.97832
RightHand  -1.74979 6.30047 -17.6459
LeftUpLeg  4.39102 4.01128 -1.73893
LeftLeg  2.4922 13.9585 -4.81894
LeftFoot  -3.91458 -0.460527 7.44898
LeftToes  1.06245e-005 4.65869e-005 -8.65513e-006
152
root  -53.2372 41.3339 1.2351 168.139 -83.3076 -171.509
RightUpLeg  -1.878 -6.6222 -4.44919
RightLeg  5.85758 2.85024 2.39415
RightFoot  0.457616 -0.0901707 0.902821
RightToes  0.000481922 0.542163 -0.142578
Spine  -0.370816 0.70827 2.0841
Spine1  6.15978 0.0247871 2.76782
HEad  -6.17041 4.8233 -1.54559
LeftShoulder1  5.74725 -10.506 -34.9507
LeftArm  -8.15661 8.62861 -11.457
LeftForeArm  34.3322 -8.10192 -5.59234
LeftHand  -0.25398 0.0180481 5.50724
RightShoulder  2.629 5.66551 22.423
RightArm  -17.3598 -4.73422 11.8278
RightForeArm  4.81495 10.3025 4.66382
RightHand  -1.72942 6.27552 -17.4845
LeftUpLeg  4.85753 3.91409 -1.70113
LeftLeg  2.23105 13.9096 -4.67168
LeftFoot  -4.14799 -0.430779 7.24139
LeftToes  1.06245e-005 4.65869e-005 -8.65513e-006
153
root  -53.4426 41.3373 1.13872 168.344 -83.7093 -171.551
RightUpLeg  -1.83081 -6.60037 -4.41586
RightLeg  6.18229 2.39826 2.32654
RightFoot  0.0816238 -0.0758135 0.763088
RightToes  0.000481922 0.542163 -0.142578
Spine  -0.666562 0.822039 2.53066
Spine1  6.40693 0.303474 1.99509
HEad  -6.4855 4.52245 -1.21984
LeftShoulder1  4.93389 -9.63389 -31.4969
LeftArm  -8.65953 8.68169 -8.35313
LeftForeArm  32.7789 -7.07943 -5.28973
LeftHand  -0.25398 0.0180481 5.50724
RightShoulder  2.04288 4.48449 19.1112
RightArm  -19.2325 -3.17668 8.50626
RightForeArm  3.92064 9.00531 4.2618
RightHand  -1.8391 6.91122 -17.6371
LeftUpLeg  5.08819 3.73829 -1.77749
LeftLeg  2.08028 13.714 -4.47809
LeftFoot  -4.31339 -0.399281 6.91773
LeftToes  1.06245e-005 4.65869e-005 -8.65513e-006
154
root  -53.6349 41.3423 1.02693 168.437 -84.3137 -171.33
RightUpLeg  -1.89164 -6.66789 -4.40172
RightLeg  6.45272 1.84875 2.3453
RightFoot  -0.239186 -0.050494 0.502189
RightToes  0.000481922 0.542163 -0.142578
Spine  -0.961546 0.839126 2.83774
Spine1  6.33975 0.485907 1.24751
HEad  -6.40303 4.20534 -0.835398
LeftShoulder1  4.08258 -8.56056 -27.7215
LeftArm  -9.59395 8.51574 -5.71153
LeftForeArm  31.3648 -6.77136 -4.89847
LeftHand  -0.25398 0.0180481 5.50724
RightShoulder  1.53043 3.24909 15.9328
RightArm  -20.5505 -2.24571 5.6568
RightForeArm  2.05061 8.27034 4.00126
RightHand  -1.97532 7.42703 -18.1719
LeftUpLeg  5.09985 3.63331 -1.76866
LeftLeg  1.99779 13.1947 -4.3722
LeftFoot  -4.41966 -0.376812 6.6643
LeftToes  1.06245e-005 4.65869e-005 -8.65513e-006
155
root  -53.8149 41.3501 0.901019 167.666 -85.0235 -170.254
RightUpLeg  -1.84904 -6.7899 -4.37101
RightLeg  6.60141 1.22231 2.44342
RightFoot  -0.582759 -0.0273525 0.248185
RightToes  0.000481922 0.542163 -0.142578
Spine  -0.842152 0.844487 2.89945
Spine1  5.59229 0.574794 0.955017
HEad  -5.94504 3.82517 -0.672085
LeftShoulder1  3.35059 -7.49084 -24.2272
LeftArm  -10.8116 8.32142 -3.29787
LeftForeArm  29.8766 -7.24647 -4.48355
LeftHand  -0.25398 0.0180481 5.50724
RightShoulder  1.06377 1.94574 12.4801
RightArm  -21.4965 -2.14682 3.64757
RightForeArm  -0.909567 8.40625 3.95764
RightHand  -2.00954 7.04501 -19.0172
LeftUpLeg  5.06792 3.64349 -1.60493
LeftLeg  1.99687 12.4351 -4.34769
LeftFoot  -4.54761 -0.362142 6.55624
LeftToes  1.06245e-005 4.65869e-005 -8.65513e-006
156
root  -53.9763 41.3603 0.761817 166.696 -85.7664 -169.028
RightUpLeg  -1.71574 -6.93779 -4.37496
RightLeg  6.62147 0.617545 2.57503
RightFoot  -0.897969 -0.0199684 0.155218
RightToes  0.000481922 0.542163 -0.142578
Spine  -0.485207 0.855231 2.70098
Spine1  4.53559 0.614283 0.964108
HEad  -5.34731 3.12541 -0.571012
LeftShoulder1  2.75702 -6.51808 -21.0829
LeftArm  -12.0795 8.12772 -1.08718
LeftForeArm  28.8239 -8.52328 -4.12048
LeftHand  -0.25398 0.0180481 5.50724
RightShoulder  0.722436 0.85678 9.23322
RightArm  -22.1331 -2.59226 2.0516
RightForeArm  -4.00578 8.93752 4.01338
RightHand  -1.96932 6.21428 -19.9058
LeftUpLeg  5.05058 3.59132 -1.46757
LeftLeg  1.99917 11.7094 -4.26069
LeftFoot  -4.64516 -0.346686 6.39851
LeftToes  1.06245e-005 4.65869e-005 -8.65513e-006
